<?xml version="1.0" encoding="utf-8"?>
<svg version="1.1" id="Layer_1" xmlns="http://www.w3.org/2000/svg" xmlns:xlink="http://www.w3.org/1999/xlink" x="0px"
  y="0px" width="892px" height="464.5px" viewBox="0 0 892 464.5" style="enable-background:new 0 0 892 464.5;"
  xml:space="preserve">
  <style type="text/css">
    .st0 {
      fill: #151515;
    }
	  
    .st2 {
      fill: #FFFFFF;
    }

    .st22 {
      fill: none;
      stroke: #FFFFFF;
      stroke-width: 8.4864;
      stroke-linecap: round;
      stroke-linejoin: round;
      stroke-miterlimit: 10;
    }

    #g {
      fill: none;
      animation: blink ease-out infinite 4s;
    }

    #b {
      fill: none;
      animation: blinkLong ease-out infinite 6.2s;
    }

    @keyframes blinkLong {
      50% {
        fill: #FFF;
      }

      52% {
        fill: #0D1117;
      }

      54% {
        fill: #FFF;
      }

      76% {
        fill: #FFF;
      }

      76.5% {
        fill: #0D1117;
      }

      77% {
        fill: #FFF;
      }
    }

    @keyframes blink {
      83% {
        fill: #FFF;
      }

      83.5% {
        fill: #0D1117;
      }

      84% {
        fill: #FFF;
      }

      86% {
        fill: #FFF;
      }

      87% {
        fill: #0D1117;
      }

      89% {
        fill: #FFF;
      }
    }
  </style>
  <path class="st0" d="M873.5,0.2h-855C8.3,0.2,0,5.9,0,12.9v438.8c0,7.1,8.3,12.7,18.5,12.7h855c10.2,0,18.5-5.7,18.5-12.7V13
	C892,6,883.7,0.2,873.5,0.2z" />
  <g id="Ring">
    <g>
      <g>
        <path class="st22" d="M525.8,113c-25.4-21-58.4-33.7-94.4-33.7l0,0c-1.3,0-2.6,0-3.9,0.1" />
        <path class="st22" d="M303.3,152.9c-11.4,20.2-17.9,43.4-17.9,68.1l0,0c0,32.8,11.5,62.9,30.7,86.9" />
        <path class="st22" d="M577.2,223.2c0-0.7,0-1.5,0-2.2l0,0c0-15.1-2.4-29.6-6.9-43.2" />
        <path class="st22" d="M358,343.5c21.5,12.2,46.6,19.1,73.3,19.1l0,0c46.2,0,87.4-20.9,114.1-53.4" />
      </g>
    </g>
  </g>
  <g id="Text">
    <path id="g" class="st2" d="M446.5,225.7c0,1.8-0.7,3.4-2.2,4.9c-1.4,1.4-2.9,2.2-4.7,2.2c-1.2,0-2.9-0.6-5-1.9c-2.8-1.7-4.9-2.8-6.3-3.3
		c-0.7,6.4-1,12.8-1,19.1c0,7.4,0.5,14.2,1.6,20.5c1.1,6.3,1.6,9.1,1.6,8.2c0,1.7-0.7,3.2-2,4.4c-1.4,1.2-2.9,1.9-4.8,1.9
		c-5.4,0-8.6-7.2-9.6-21.5c-7.7,15.1-19.9,22.7-36.5,22.7c-14.2,0-25.5-5.1-34-15.2c-8.6-10.3-12.8-24.4-12.8-42.4
		c0-21.5,5.7-38.2,17-50.2s27.1-18,47.2-18c10.6,0,19.6,1.7,27.3,5.2c7,3.1,10.6,6.4,10.6,10c0,1.9-0.7,3.5-2,5
		c-1.3,1.4-2.8,2.2-4.4,2.2c-1.1,0-2.5-0.5-4.3-1.4l-5.3-2.6c-6.7-2.8-13.8-4.2-21.4-4.2c-15.9,0-28.1,4.6-36.7,13.9
		c-8.5,9.2-12.8,22.5-12.8,39.9c0,14.2,2.9,25.1,8.9,32.9c5.8,7.7,13.8,11.5,24.1,11.5c9.6,0,17.3-3.7,23.1-11
		c5.7-7.1,10-18.2,12.7-33.2c-4.3-0.8-7.9-1.3-10.9-1.3c-3.5,0-7.4,0.6-11.6,1.9c-4.2,1.1-6.7,1.7-7.6,1.7c-1.6,0-3.1-0.7-4.3-2.1
		c-1.3-1.5-1.9-3.1-1.9-5c0-3,2.5-5.5,7.4-7.5c5.2-2,12.4-3.1,21.4-3.1c11.2,0,20.6,1.8,28.5,5.4
		C442.9,218.3,446.5,221.9,446.5,225.7L446.5,225.7z" />
    <path id="b" class="st2" d="M541.4,239.8c0,12.2-5.4,22.4-16.1,30.5c-8.9,6.7-19.4,10.1-31.6,10.1c-6.1,0-13-1.1-20.8-3.3
		c-0.8,4.5-3.2,6.8-7,6.8c-2.8,0-4.9-1.2-5.9-3.6c-1.1-2.2-1.6-6-1.6-11.2c0-11,1.4-35.5,4.4-73.6l0.6-7.9
		c0.7-8.6,1.4-14.2,2.3-16.6c1.3-3.5,3.5-5.3,6.9-5.3c4.3,0,6.4,2.8,6.4,8.5c0-1.6-0.8,6.8-2.5,25.3c-1.8,19.7-2.9,40.9-3.4,63.3
		c8,2.5,15.2,3.8,21.5,3.8c9.4,0,17.2-2.6,23.2-7.9c5.8-5,8.6-11.3,8.6-18.8c0-14.6-10.1-22-30.4-22c-0.7,0-1.8,0-3.2,0.1
		s-2.5,0.1-3.2,0.1c-4.3,0-6.5-2-6.5-5.9c0-2.9,1.2-4.8,3.6-5.8c1.4-0.6,3.5-1,6.2-1.3c3.3-0.3,5.6-0.6,6.8-0.9c4-1,7.2-3.2,9.6-6.8
		c2.5-3.6,3.7-7.9,3.7-12.9c0-7-2.8-12.3-8.5-16.1c-5.7-3.8-13.8-5.8-24.4-5.8c-7.2,0-15,1.7-23.3,5.2c-2,1-4.1,1.9-6.1,2.8
		c-2.4,1-4.5,1.5-6.2,1.5c-1.9,0-3.4-0.6-4.5-1.8c-1.3-1.1-1.9-2.5-1.9-4.1c0-2.6,2.3-5.2,6.9-7.9c10.7-6.2,23.5-9.4,38.3-9.4
		c13.7,0,24.7,3.1,32.8,9.4c7.9,6.2,11.9,14.4,11.9,24.7c0,9.6-3.5,17.6-10.7,24.2c7.6,2.4,13.4,6.5,17.6,12.2
		C539.2,225.2,541.4,232,541.4,239.8L541.4,239.8z" />
  </g>
</svg>
